Coordinates
version=1
nRows=8
nColumns=40
inDegrees=yes

Units are S.I. units (second, meters, Newtons, ...)
Angles are in degrees.

endheader
time	pelvis_tilt	pelvis_list	pelvis_rotation	pelvis_tx	pelvis_ty	pelvis_tz	hip_flexion_r	hip_adduction_r	hip_rotation_r	knee_angle_r	knee_angle_r_beta	ankle_angle_r	subtalar_angle_r	mtp_angle_r	hip_flexion_l	hip_adduction_l	hip_rotation_l	knee_angle_l	knee_angle_l_beta	ankle_angle_l	subtalar_angle_l	mtp_angle_l	lumbar_extension	lumbar_bending	lumbar_rotation	arm_flex_r	arm_add_r	arm_rot_r	elbow_flex_r	pro_sup_r	wrist_flex_r	wrist_dev_r	arm_flex_l	arm_add_l	arm_rot_l	elbow_flex_l	pro_sup_l	wrist_flex_l	wrist_dev_l
      0.50000000	      1.81868974	     -5.58712931	     -0.29539938	     -0.79376544	      0.90273594	     -1.42356395	     10.32335314	      7.42199663	    -14.14067562	    -22.56553605	     -0.39384290	      5.51850538	      2.34245810	     -1.28578527	      9.69875079	     10.05536464	      6.67665275	    -60.25874489	     -1.05171350	     -4.56196381	      8.63901460	     -7.31361927	     -6.15326630	      9.17336227	      2.09987276	      2.17104973	    -12.95213157	     22.24142537	     13.55035855	     89.95437384	      0.00000000	      0.00000000	      6.04925324	      8.75361284	     -3.37867410	     46.85337616	     89.95437384	      0.00000000	      0.00000000
      0.51000000	      1.86922150	     -5.30374248	     -0.38357918	     -0.78188121	      0.90373906	     -1.42287976	      9.09532301	      7.18170844	    -14.38268183	    -22.04595704	     -0.38477454	      5.93697439	      2.42339027	     -1.31821835	     11.31513422	      9.66875090	      6.88086395	    -60.07532753	     -1.04851226	     -3.49577515	      8.07025292	     -7.49843188	     -6.23223091	      8.72111894	      2.45185459	      3.06101972	    -12.95902573	     22.32983445	     13.74429255	     89.95437384	      0.00000000	      0.00000000	      5.57508470	      8.48324473	     -3.58823905	     45.41611971	     89.95437384	      0.00000000	      0.00000000
      0.52000000	      2.75515457	     -5.30295197	     -0.15954304	     -0.76915070	      0.90599498	     -1.42261635	      6.55943907	      7.30528516	    -14.46653647	    -20.86644377	     -0.36418815	      6.37389708	      3.31536802	     -1.50573906	     11.66305330	      9.32657389	      6.48787373	    -59.14550884	     -1.03228387	     -1.46620436	      6.41515281	     -8.56109296	     -7.14227548	      8.60205723	      2.68571937	      3.83159601	    -13.15616419	     22.78680582	     14.33276133	     89.95437384	      0.00000000	      0.00000000	      5.30374235	      8.25225909	     -4.25299414	     43.59364548	     89.95437384	      0.00000000	      0.00000000
      0.53000000	      3.16648296	     -5.09751668	     -0.16364968	     -0.75692931	      0.90741899	     -1.42203961	      4.73404624	      7.14862109	    -14.68861814	    -19.98729330	     -0.34884408	      6.72448435	      4.21694796	     -1.78444873	     12.56594029	      8.90531217	      6.57638788	    -58.07160813	     -1.01354076	     -0.29103620	      5.79144005	     -9.53328426	     -7.59279265	      8.22767857	      3.00034942	      4.69901074	    -13.22587124	     22.94472916	     14.72009734	     89.95437384	      0.00000000	      0.00000000	      4.95524600	      7.96935224	     -4.51053424	     41.68660183	     89.95437384	      0.00000000	      0.00000000
      0.54000000	      3.00080400	     -4.99629625	     -0.25457429	     -0.74520400	      0.90770014	     -1.42134852	      3.84455664	      7.08116421	    -14.95979592	    -19.63805158	     -0.34274866	      7.04992031	      4.25081029	     -1.82831432	     14.19429611	      8.62055530	      6.75994312	    -56.92469692	     -0.99352339	      0.18655550	      5.54412294	     -9.55753781	     -7.40636734	      7.97922393	      3.16665010	      5.68259561	    -13.22176659	     22.88210575	     14.96442115	     89.95437384	      0.00000000	      0.00000000	      4.35644155	      7.78275258	     -4.68772841	     40.00422933	     89.95437384	      0.00000000	      0.00000000
      0.55000000	      3.67687116	     -4.77705878	     -0.15841094	     -0.73305020	      0.90921861	     -1.42118249	      1.66574693	      6.89554189	    -15.18870996	    -18.61685955	     -0.32492550	      7.32025354	      5.39323796	     -2.19709484	     14.60728137	      8.02722669	      6.71103764	    -55.18769105	     -0.96320692	      0.99172684	      4.92459847	    -10.41237695	     -8.16893721	      7.62811681	      3.43687036	      6.50861971	    -13.31010710	     22.52865370	     15.52227624	     89.95437384	      0.00000000	      0.00000000	      4.24185800	      7.47744863	     -5.05268508	     37.64991962	     89.95437384	      0.00000000	      0.00000000
      0.56000000	      3.68344639	     -4.65489660	     -0.34900116	     -0.72100065	      0.90947184	     -1.42052353	      0.47396805	      6.78977010	    -15.35014413	    -18.05466751	     -0.31511339	      7.64691630	      5.95776868	     -2.41600571	     15.69782886	      7.70850290	      7.04129175	    -53.35981276	     -0.93130442	      1.57303593	      4.74424684	    -10.71170732	     -8.15797871	      7.35292347	      3.77878525	      7.32321032	    -13.38509186	     22.47384856	     15.98025405	     89.95437384	      0.00000000	      0.00000000	      3.83889956	      7.19218903	     -5.20914766	     35.39371019	     89.95437384	      0.00000000	      0.00000000
      0.57000000	      3.46685360	     -4.73275350	     -0.40065618	     -0.70963587	      0.90895758	     -1.41975005	     -0.24519208	      6.92961483	    -15.59339330	    -17.83228255	     -0.31123204	      7.98426725	      6.00036595	     -2.47964472	     17.17854526	      7.66886981	      7.28133452	    -51.55069691	     -0.89972939	      1.97121458	      4.64507757	    -10.64070047	     -7.99827182	      7.26379690	      3.79941783	      8.31850785	    -13.41189668	     22.32335597	     16.49407098	     89.95437384	      0.00000000	      0.00000000	      3.16071906	      7.12928776	     -5.37854413	     33.75555527	     89.95437384	      0.00000000	      0.00000000
